<svg width="512" height="512" xmlns="http://www.w3.org/2000/svg">
  <!-- Background circle -->
  <circle cx="256" cy="256" r="206" fill="#4682FF" stroke="#ffffff" stroke-width="8"/>
  
  <!-- Central hub -->
  <circle cx="256" cy="256" r="30" fill="#ffffff"/>
  
  <!-- Connection lines and nodes -->
  <g stroke="#ffffff" stroke-width="6" fill="#ffffff">
    <!-- Node 1 (top) -->
    <line x1="256" y1="256" x2="256" y2="106"/>
    <circle cx="256" cy="106" r="20" fill="#FF8C00"/>
    
    <!-- Node 2 (top-right) -->
    <line x1="256" y1="256" x2="386" y2="181"/>
    <circle cx="386" cy="181" r="20" fill="#ffffff"/>
    
    <!-- Node 3 (bottom-right) -->
    <line x1="256" y1="256" x2="386" y2="331"/>
    <circle cx="386" cy="331" r="20" fill="#FF8C00"/>
    
    <!-- Node 4 (bottom) -->
    <line x1="256" y1="256" x2="256" y2="406"/>
    <circle cx="256" cy="406" r="20" fill="#ffffff"/>
    
    <!-- Node 5 (bottom-left) -->
    <line x1="256" y1="256" x2="126" y2="331"/>
    <circle cx="126" cy="331" r="20" fill="#FF8C00"/>
    
    <!-- Node 6 (top-left) -->
    <line x1="256" y1="256" x2="126" y2="181"/>
    <circle cx="126" cy="181" r="20" fill="#ffffff"/>
  </g>
  
  <!-- Inter-node connections -->
  <g stroke="#ffffff" stroke-width="2" stroke-opacity="0.7">
    <line x1="256" y1="106" x2="386" y2="181"/>
    <line x1="386" y1="181" x2="386" y2="331"/>
    <line x1="386" y1="331" x2="256" y2="406"/>
    <line x1="256" y1="406" x2="126" y2="331"/>
    <line x1="126" y1="331" x2="126" y2="181"/>
    <line x1="126" y1="181" x2="256" y2="106"/>
  </g>
</svg>
